PathFileType	4	(X/Y/Z)	Kaydara	
DataRate	CameraRate	NumFrames	NumMarkers	Units	OrigDataRate	OrigDataStartFrame	OrigNumFrames	
120.00	120.00	9	29	mm	120.00	1068	2847	
Frame#	Time	Pelvis			Left_hip			Left_knee			Left_ankle			Left_foot			Left_foot_End			Right_hip			Right_knee			Right_ankle			Right_foot			Right_foot_End			Spine1			Spine2			Spine3			Neck			Head			Head_End			Left_collar			Left_shoulder			Left_elbow			Left_wrist			Left_palm			Left_palm_End			Right_collar			Right_shoulder			Right_elbow			Right_wrist			Right_palm			Right_palm_End			
		X1	Y1	Z1	X2	Y2	Z2	X3	Y3	Z3	X4	Y4	Z4	X5	Y5	Z5	X6	Y6	Z6	X7	Y7	Z7	X8	Y8	Z8	X9	Y9	Z9	X10	Y10	Z10	X11	Y11	Z11	X12	Y12	Z12	X13	Y13	Z13	X14	Y14	Z14	X15	Y15	Z15	X16	Y16	Z16	X17	Y17	Z17	X18	Y18	Z18	X19	Y19	Z19	X20	Y20	Z20	X21	Y21	Z21	X22	Y22	Z22	X23	Y23	Z23	X24	Y24	Z24	X25	Y25	Z25	X26	Y26	Z26	X27	Y27	Z27	X28	Y28	Z28	X29	Y29	Z29	

1068	8.892	589.24999	835.86998	-842.23999	505.70409	780.89099	-819.63044	648.92076	561.44004	-1107.10422	703.67193	269.50848	-797.88053	643.16798	182.99081	-893.10694	643.16798	182.99081	-893.10694	614.21131	746.17287	-784.40681	832.40396	512.51175	-1000.98365	872.98899	119.95414	-851.82721	938.52032	40.56851	-958.87188	938.52032	40.56851	-958.87188	624.04494	948.49095	-882.29621	661.93338	1072.49778	-929.71862	681.91747	1117.32565	-956.99513	756.63044	1287.53467	-1059.93849	785.83737	1325.25199	-1150.92001	785.83737	1325.25199	-1150.92001	646.42555	1225.64836	-1031.16321	532.91564	1275.97283	-1076.97556	418.45482	1046.06795	-1079.86190	351.77203	857.30891	-1255.19110	346.72934	782.26652	-1302.25235	346.72934	782.26652	-1302.25235	788.77577	1209.11357	-972.79354	908.10723	1221.82188	-946.60023	1103.14517	1087.01496	-834.18334	1151.00925	1167.09088	-1086.76694	1168.97842	1200.71484	-1168.01201	1168.97842	1200.71484	-1168.01201 
1069	8.900	589.37000	835.91003	-842.22000	505.83625	780.90691	-819.62426	648.91907	561.38754	-1107.11246	703.71834	269.41260	-797.93824	643.14254	182.90976	-893.13243	643.14254	182.90976	-893.13243	614.34995	746.20948	-784.40021	832.35948	512.46860	-1001.07538	872.95013	119.92418	-851.88575	938.45556	40.52808	-958.93851	938.45556	40.52808	-958.93851	624.13971	948.54611	-882.25566	662.00205	1072.56841	-929.65846	681.97845	1117.40286	-956.92979	756.66668	1287.62943	-1059.86208	785.87266	1325.35582	-1150.84015	785.87266	1325.35582	-1150.84015	646.47142	1225.72132	-1031.09684	532.99853	1276.13056	-1076.90771	418.60653	1046.19215	-1079.85052	351.91219	857.41818	-1255.15926	346.86917	782.37368	-1302.21711	346.86917	782.37368	-1302.21711	788.82053	1209.21151	-972.71741	908.13762	1221.97234	-946.48418	1103.04754	1087.39765	-833.56813	1148.86034	1167.75959	-1086.44111	1165.99669	1201.30749	-1167.89727	1165.99669	1201.30749	-1167.89727 
1070	8.908	589.43001	835.94002	-842.22000	505.90072	780.91779	-819.65429	649.16367	561.40213	-1107.05560	704.05414	269.44275	-797.88286	643.48408	182.92918	-893.07096	643.48408	182.92918	-893.07096	614.40978	746.24470	-784.39200	832.39888	512.41877	-1000.99594	873.02586	119.90737	-851.72934	938.54236	40.49784	-958.76536	938.54236	40.49784	-958.76536	624.18838	948.58426	-882.24251	662.03878	1072.61325	-929.63736	682.01446	1117.44864	-956.90766	756.69724	1287.66971	-1059.85301	785.93357	1325.38008	-1150.82797	785.93357	1325.38008	-1150.82797	646.50802	1225.73501	-1031.12184	533.04721	1276.09510	-1077.01659	418.71444	1046.12693	-1079.93548	352.13293	857.32008	-1255.25170	347.13305	782.27399	-1302.31161	347.13305	782.27399	-1302.31161	788.83502	1209.28648	-972.67121	908.12831	1222.11477	-946.36282	1102.93521	1087.84934	-832.90214	1146.61015	1168.59729	-1086.03030	1162.83830	1202.04310	-1167.71413	1162.83830	1202.04310	-1167.71413 
1071	8.917	589.50001	835.97000	-842.21001	505.97364	780.93272	-819.67019	649.30594	561.33801	-1106.97652	704.26685	269.38225	-797.81288	643.68176	182.88272	-893.00418	643.68176	182.88272	-893.00418	614.47743	746.28191	-784.36980	832.36723	512.40011	-1001.01332	872.97370	119.89064	-851.73606	938.47841	40.47898	-958.77771	938.47841	40.47898	-958.77771	624.25032	948.61922	-882.22552	662.09121	1072.65199	-929.61806	682.06752	1117.48767	-956.88742	756.74522	1287.70575	-1059.84140	786.03500	1325.39481	-1150.80799	786.03500	1325.39481	-1150.80799	646.56493	1225.72563	-1031.17402	533.10355	1276.02569	-1077.13316	418.77873	1046.05365	-1080.05873	352.22338	857.22307	-1255.35932	347.23526	782.17364	-1302.41515	347.23526	782.17364	-1302.41515	788.85322	1209.37442	-972.60199	908.13054	1222.23025	-946.23467	1102.82728	1088.25209	-832.24654	1144.34655	1169.48199	-1085.58318	1159.53317	1202.75247	-1167.53843	1159.53317	1202.75247	-1167.53843 
1072	8.925	589.55002	835.98999	-842.19002	506.03483	780.92876	-819.66729	649.40807	561.29971	-1106.92693	704.80400	269.36328	-797.82268	644.14627	182.88305	-892.98523	644.14627	182.88305	-892.98523	614.54172	746.30722	-784.34772	832.34416	512.37657	-1001.02636	872.95884	119.86500	-851.75686	938.45570	40.45673	-958.80584	938.45570	40.45673	-958.80584	624.27632	948.65005	-882.19586	662.09159	1072.69175	-929.58548	682.06179	1117.52870	-956.85722	756.71575	1287.73971	-1059.84010	786.03008	1325.40589	-1150.80827	786.03008	1325.40589	-1150.80827	646.54794	1225.72564	-1031.19819	533.09773	1276.01188	-1077.20000	418.76402	1046.04408	-1080.11116	352.21938	857.20062	-1255.40195	347.23506	782.14866	-1302.45415	347.23506	782.14866	-1302.45415	788.81738	1209.45270	-972.55858	908.08169	1222.33482	-946.14529	1102.68189	1088.71290	-831.57565	1142.02749	1170.57966	-1085.05416	1156.06736	1203.57324	-1167.32522	1156.06736	1203.57324	-1167.32522 
1073	8.933	589.59999	836.02997	-842.17003	506.09384	780.94162	-819.68013	649.47797	561.26282	-1106.89629	705.05560	269.35220	-797.80028	644.39533	182.86616	-892.95594	644.39533	182.86616	-892.95594	614.59864	746.35268	-784.32223	832.31988	512.38929	-1001.04710	872.92806	119.87452	-851.78425	938.42606	40.47492	-958.83897	938.42606	40.47492	-958.83897	624.30560	948.70254	-882.15857	662.10136	1072.75396	-929.53832	682.06944	1117.59122	-956.81111	756.72166	1287.78524	-1059.82332	786.05587	1325.42996	-1150.79397	786.05587	1325.42996	-1150.79397	646.55718	1225.75861	-1031.19581	533.10040	1275.99819	-1077.23242	418.78662	1046.02030	-1080.12884	352.28178	857.15600	-1255.41228	347.30951	782.09970	-1302.45883	347.30951	782.09970	-1302.45883	788.81201	1209.53106	-972.50822	908.06514	1222.44343	-946.05923	1102.58024	1089.26776	-830.82741	1139.82618	1171.74168	-1084.42628	1152.63477	1204.33797	-1167.05584	1152.63477	1204.33797	-1167.05584 
1074	8.942	589.64001	836.06003	-842.14996	506.14234	780.94714	-819.68872	649.64589	561.24488	-1106.82729	705.32842	269.33716	-797.74742	644.65120	182.86421	-892.90417	644.65120	182.86421	-892.90417	614.64504	746.39066	-784.29265	832.29284	512.39559	-1001.05708	872.88912	119.87650	-851.80234	938.40678	40.49188	-958.85612	938.40678	40.49188	-958.85612	624.32618	948.74253	-882.12739	662.10347	1072.80204	-929.50069	682.07047	1117.64058	-956.77217	756.72333	1287.82879	-1059.79351	786.09186	1325.45970	-1150.75879	786.09186	1325.45970	-1150.75879	646.56324	1225.77612	-1031.20557	533.09871	1275.94576	-1077.29929	418.80042	1045.96016	-1080.19441	352.34165	857.05347	-1255.44965	347.38215	781.98653	-1302.48057	347.38215	781.98653	-1302.48057	788.79271	1209.60902	-972.43988	908.03169	1222.54944	-945.94088	1102.40443	1089.78770	-829.99339	1137.73008	1172.81934	-1083.68501	1149.29515	1204.90793	-1166.69582	1149.29515	1204.90793	-1166.69582 
1075	8.950	589.67999	836.08002	-842.12997	506.18879	780.95620	-819.67149	649.70225	561.25062	-1106.80257	705.46817	269.31572	-797.76340	644.72999	182.84433	-892.88267	644.72999	182.84433	-892.88267	614.69531	746.41179	-784.27534	832.22318	512.38332	-1001.12409	872.84295	119.85386	-851.90301	938.33390	40.48032	-958.98137	938.33390	40.48032	-958.98137	624.35285	948.76807	-882.10329	662.11681	1072.83291	-929.47327	682.08092	1117.67338	-956.74369	756.72554	1287.86618	-1059.76342	786.10794	1325.49453	-1150.72528	786.10794	1325.49453	-1150.72528	646.57057	1225.79520	-1031.19553	533.08714	1275.91637	-1077.29546	418.77096	1045.93961	-1080.18749	352.28164	857.02518	-1255.42278	347.31244	781.95596	-1302.44904	347.31244	781.95596	-1302.44904	788.78932	1209.66068	-972.39495	908.02593	1222.60382	-945.88662	1102.26107	1090.19304	-829.30894	1135.65911	1173.78525	-1083.07756	1145.98379	1205.31397	-1166.46559	1145.98379	1205.31397	-1166.46559 
1076	8.958	589.76002	836.11000	-842.10999	506.26796	780.97694	-819.67741	649.97025	561.28694	-1106.72594	705.94394	269.37875	-797.69910	645.20426	182.92163	-892.83039	645.20426	182.92163	-892.83039	614.76672	746.44724	-784.24316	832.27798	512.40456	-1001.09324	872.93953	119.88919	-851.84649	938.45969	40.52586	-958.91454	938.45969	40.52586	-958.91454	624.43266	948.80061	-882.07629	662.19911	1072.86665	-929.44114	682.16957	1117.70608	-956.70862	756.84256	1287.88982	-1059.72275	786.26620	1325.50508	-1150.67669	786.26620	1325.50508	-1150.67669	646.68192	1225.80817	-1031.19993	533.20411	1275.91523	-1077.32901	418.88853	1045.93879	-1080.26930	352.44542	857.01193	-1255.50872	347.49216	781.94171	-1302.53506	347.49216	781.94171	-1302.53506	788.87251	1209.70607	-972.32242	908.10106	1222.64270	-945.77463	1102.16044	1090.56685	-828.52624	1133.74723	1174.79231	-1082.31739	1142.82250	1205.74708	-1166.06501	1142.82250	1205.74708	-1166.06501 
